:SAMPLES-PER-SECOND 30
:FULLY-SPECIFIED
:DEGREES
1167
root  34.8487 39.4543 12.7301 148.18 88.0819 155.579
RightUpLeg  -3.56683 -21.8198 -8.27039
RightLeg  24.8702 -6.07796 -3.29658
RightFoot  -8.79338 -0.0913109 1.42278
RightToes  0.000481921 0.542163 -0.142578
Spine  13.2462 -1.64581 9.88699
Spine1  10.5759 -0.0667061 -1.11554
HEad  19.2471 3.96449 -4.75564
LeftShoulder1  6.07417 -11.9149 -33.3526
LeftArm  -5.3638 -21.1246 -45.0928
LeftForeArm  -163.781 -54.5084 -167.915
LeftHand  -0.25398 0.0180481 5.50724
RightShoulder  5.3093 10.9647 30.7385
RightArm  -2.79114 21.3989 58.3048
RightForeArm  -172.722 57.44 165.807
RightHand  -0.577565 3.48639 -7.85318
LeftUpLeg  -0.342628 15.2496 12.831
LeftLeg  16.2331 4.70859 1.82108
LeftFoot  -3.04818 0.768249 -10.3257
LeftToes  1.06244e-005 4.65869e-005 -8.65518e-006
1168
root  34.6971 39.3739 12.3377 149.418 88.1637 156.857
RightUpLeg  -4.07917 -21.5611 -8.76797
RightLeg  25.4131 -5.99234 -3.32672
RightFoot  -8.6022 -0.105396 1.97265
RightToes  0.000481921 0.542163 -0.142578
Spine  14.0751 -1.62524 9.93779
Spine1  10.1135 0.11871 -1.46033
HEad  18.855 3.96051 -4.77241
LeftShoulder1  6.16317 -12.1269 -33.3873
LeftArm  -5.71906 -21.4306 -44.1688
LeftForeArm  -164.07 -54.1696 -168.046
LeftHand  -0.25398 0.0180481 5.50724
RightShoulder  5.15645 10.7812 30.1332
RightArm  -3.18991 22.8448 57.976
RightForeArm  -173.031 58.0962 165.426
RightHand  -0.625534 3.97797 -8.07225
LeftUpLeg  -1.38473 16.2834 12.4461
LeftLeg  18.1693 3.79591 1.71756
LeftFoot  -4.18466 0.658465 -10.1073
LeftToes  1.06244e-005 4.65869e-005 -8.65518e-006
1169
root  34.4935 39.1826 11.8954 157.789 88.1105 165.446
RightUpLeg  -4.84174 -21.7234 -9.3048
RightLeg  26.8384 -5.67648 -3.34743
RightFoot  -8.8478 -0.115211 2.53789
RightToes  0.000481921 0.542163 -0.142578
Spine  15.2046 -1.84679 10.2753
Spine1  10.0224 0.12909 -1.77531
HEad  17.8707 3.92349 -5.05303
LeftShoulder1  6.25627 -12.3942 -33.3118
LeftArm  -6.43795 -21.4597 -43.7245
LeftForeArm  -164.626 -53.9243 -168.115
LeftHand  -0.25398 0.0180481 5.50724
RightShoulder  5.1336 10.8517 29.7902
RightArm  -3.67351 24.3992 57.3912
RightForeArm  -174.48 58.4798 165.092
RightHand  -0.72099 4.1656 -9.07609
LeftUpLeg  -3.20024 16.1703 11.9631
LeftLeg  21.5826 3.70917 1.95016
LeftFoot  -5.6293 0.511914 -9.56075
LeftToes  1.06244e-005 4.65869e-005 -8.65518e-006
1170
root  34.2761 38.9374 11.4207 169.366 87.547 177.435
RightUpLeg  -5.35692 -22.6956 -10.1102
RightLeg  28.524 -5.03104 -3.19728
RightFoot  -9.28458 -0.116328 2.96938
RightToes  0.000481921 0.542163 -0.142578
Spine  16.1744 -2.20905 10.5352
Spine1  10.5688 -0.0967002 -1.73459
HEad  16.7957 3.51326 -5.2208
LeftShoulder1  6.14643 -12.3597 -32.7052
LeftArm  -7.73343 -21.8428 -44.4291
LeftForeArm  -163.977 -54.1526 -168.059
LeftHand  -0.25398 0.0180481 5.50724
RightShoulder  5.25736 11.2125 29.7518
RightArm  -4.57052 25.8609 55.926
RightForeArm  -176.53 58.4895 164.917
RightHand  -0.897582 4.5717 -10.7769
LeftUpLeg  -5.2652 14.5806 11.1986
LeftLeg  25.3699 4.49172 2.65516
LeftFoot  -6.79056 0.382365 -8.58915
LeftToes  1.06244e-005 4.65869e-005 -8.65518e-006
1171
root  34.0831 38.7379 10.9663 173.569 86.381 -177.768
RightUpLeg  -5.20646 -23.8021 -11.2579
RightLeg  29.7297 -4.6603 -3.12094
RightFoot  -9.53038 -0.118686 3.41356
RightToes  0.000481921 0.542163 -0.142578
Spine  16.8483 -2.38474 10.239
Spine1  11.4997 -0.375806 -1.16596
HEad  16.3105 2.41003 -5.18653
LeftShoulder1  5.7818 -11.9202 -31.4415
LeftArm  -9.88217 -23.2742 -45.9408
LeftForeArm  -161.998 -54.8605 -167.88
LeftHand  -0.25398 0.0180481 5.50724
RightShoulder  5.3538 11.5187 29.6639
RightArm  -6.01772 27.1398 53.7007
RightForeArm  -176.078 58.4124 164.998
RightHand  -1.03429 5.30123 -11.5971
LeftUpLeg  -6.7095 12.549 10.2414
LeftLeg  28.128 5.17935 3.32762
LeftFoot  -7.41877 0.300739 -7.48577
LeftToes  1.06244e-005 4.65869e-005 -8.65518e-006
